<svg width="435" height="512" viewBox="0 0 435 512" fill="none" xmlns="http://www.w3.org/2000/svg">
<g id="Group 22">
<path id="Path 3" fill-rule="evenodd" clip-rule="evenodd" d="M340.639 -104.675C264.936 -128.368 187.096 -167.887 107.404 -95.7051C27.7114 -23.5227 -22.3904 39.7087 9.9639 121.522C42.3182 203.336 174.386 152.377 212.758 225.499C251.131 298.621 166.817 364.984 203.167 430.062C239.516 495.14 267.466 536.849 384.282 495.471C501.098 454.092 490.327 348.807 579.16 287.153C667.993 225.499 764.104 133.2 632.206 -31.4938C500.309 -196.188 416.341 -80.9809 340.639 -104.675Z" stroke="#96A9C6"/>
<path id="Path 3 Copy" fill-rule="evenodd" clip-rule="evenodd" d="M350.105 -66.7512C288.522 -85.9909 225.2 -118.081 160.371 -59.4677C95.5429 -0.854298 54.7857 50.4907 81.1055 116.925C107.425 183.359 214.86 141.98 246.076 201.356C277.292 260.732 208.704 314.621 238.274 367.465C267.843 420.31 290.58 454.178 385.608 420.578C480.636 386.978 471.875 301.484 544.139 251.42C616.403 201.356 694.588 126.408 587.291 -7.32703C479.994 -141.062 411.688 -47.5115 350.105 -66.7512Z" stroke="#96A9C6"/>
<path id="Path 3 Copy 2" fill-rule="evenodd" clip-rule="evenodd" d="M367.812 -41.5826C317.85 -57.281 266.478 -83.4647 213.883 -35.6397C161.289 12.1853 128.223 54.0797 149.576 108.286C170.929 162.492 258.09 128.729 283.414 177.176C308.739 225.624 253.095 269.594 277.084 312.712C301.074 355.829 319.52 383.464 396.615 356.048C473.71 328.633 466.602 258.875 525.229 218.026C583.856 177.176 647.287 116.023 560.238 6.90395C473.189 -102.215 417.773 -25.8841 367.812 -41.5826Z" stroke="#96A9C6"/>
<path id="Path 3 Copy 5" fill-rule="evenodd" clip-rule="evenodd" d="M386.316 -10.8163C346.021 -23.4115 304.588 -44.4194 262.169 -6.04815C219.75 32.3231 193.082 65.9361 210.304 109.427C227.525 152.918 297.822 125.829 318.247 164.7C338.672 203.57 293.794 238.848 313.142 273.443C332.49 308.038 347.367 330.21 409.546 308.213C471.725 286.217 465.992 230.248 513.276 197.474C560.56 164.7 611.718 115.635 541.512 28.0857C471.305 -59.4635 426.611 1.77901 386.316 -10.8163Z" stroke="#96A9C6"/>
<path id="Path 3 Copy 4" fill-rule="evenodd" clip-rule="evenodd" d="M391.083 9.04585C358.173 -1.24941 324.334 -18.4211 289.69 12.9433C255.047 44.3076 233.266 71.7825 247.332 107.332C261.397 142.881 318.809 120.739 335.49 152.511C352.172 184.283 315.519 213.12 331.321 241.397C347.123 269.674 359.273 287.797 410.055 269.818C460.837 251.838 456.155 206.09 494.773 179.301C533.39 152.511 575.171 112.406 517.833 40.844C460.494 -30.718 423.992 19.3411 391.083 9.04585Z" stroke="#96A9C6"/>
<path id="Path 3 Copy 3" fill-rule="evenodd" clip-rule="evenodd" d="M400.225 23.406C373.507 15.0457 346.034 1.10134 317.907 26.5709C289.78 52.0405 272.097 74.3518 283.517 103.22C294.936 132.088 341.548 114.107 355.091 139.908C368.635 165.709 338.877 189.125 351.706 212.088C364.535 235.051 374.4 249.768 415.629 235.168C456.858 220.567 453.057 183.417 484.409 161.663C515.762 139.908 549.684 107.34 503.132 49.2279C456.579 -8.88449 426.944 31.7664 400.225 23.406Z" stroke="#96A9C6"/>
</g>
</svg>
